<?xml version="1.0" encoding="utf-8"?>
<!-- Generator: Adobe Illustrator 19.0.0, SVG Export Plug-In . SVG Version: 6.00 Build 0)  -->
<svg version="1.1" id="Calque_1" xmlns="http://www.w3.org/2000/svg" xmlns:xlink="http://www.w3.org/1999/xlink" x="0px" y="0px"
	 viewBox="-314 293.8 211.8 7.5" style="enable-background:new -314 293.8 211.8 7.5;" xml:space="preserve">
<style type="text/css">
	.st0{fill:#FFFFFF;}
	.st1{opacity:0.4;fill:#FFFFFF;enable-background:new    ;}
</style>
<g id="XMLID_18_">
	<g id="XMLID_141_">
		<path id="XMLID_150_" class="st0" d="M-306.8,299.4c0.1,0.3,0.5,0.6,1.1,0.6c1.2,0,1.7-1.2,1.6-2.6l0,0c-0.2,0.5-0.8,1-1.7,1
			c-1.2,0-2.2-0.8-2.2-2.2c0-1.5,1.1-2.4,2.4-2.4c1.2,0,2.5,0.7,2.5,3.4c0,2.4-0.8,3.7-2.6,3.7c-1.3,0-2-0.8-2.1-1.5
			C-307.8,299.4-306.8,299.4-306.8,299.4z M-305.6,294.7c-0.8,0-1.4,0.6-1.4,1.5s0.6,1.4,1.4,1.4c0.7,0,1.4-0.5,1.4-1.4
			S-304.8,294.7-305.6,294.7z"/>
		<path id="XMLID_147_" class="st0" d="M-300.8,296c0.4,0,0.8,0.3,0.8,0.8s-0.3,0.8-0.8,0.8c-0.4,0-0.8-0.3-0.8-0.8
			S-301.2,296-300.8,296z M-300.8,299.4c0.4,0,0.8,0.3,0.8,0.8s-0.3,0.8-0.8,0.8c-0.4,0-0.8-0.3-0.8-0.8S-301.2,299.4-300.8,299.4z"
			/>
		<path id="XMLID_144_" class="st0" d="M-294.4,294v4.6h0.9v0.9h-0.9v1.3h-1v-1.3h-3.3v-1c0.8-1.5,1.8-3,2.8-4.6h1.5V294z
			 M-295.4,298.6v-3.7h-0.1c-0.8,1.2-1.6,2.4-2.3,3.6l0,0L-295.4,298.6L-295.4,298.6z"/>
		<path id="XMLID_142_" class="st0" d="M-290.7,300.8v-5.7h-0.1l-1.6,1.1v-1l1.6-1.2h1v6.8H-290.7z"/>
	</g>
</g>
<g id="XMLID_13_">
	<path id="XMLID_17_" class="st0" d="M-134.7,300.5c0,0.2-0.1,0.3-0.3,0.3h-0.9c-0.2,0-0.3-0.1-0.3-0.3v-6.2c0-0.2,0.1-0.3,0.3-0.3
		h0.9c0.2,0,0.3,0.1,0.3,0.3V300.5z"/>
	<path id="XMLID_16_" class="st0" d="M-137.5,300.5c0,0.2-0.1,0.3-0.3,0.3h-0.9c-0.2,0-0.3-0.1-0.3-0.3V296c0-0.2,0.1-0.3,0.3-0.3
		h0.9c0.2,0,0.3,0.1,0.3,0.3V300.5z"/>
	<path id="XMLID_15_" class="st0" d="M-140.3,300.5c0,0.2-0.1,0.3-0.3,0.3h-0.9c-0.2,0-0.3-0.1-0.3-0.3v-3.2c0-0.2,0.1-0.3,0.3-0.3
		h0.9c0.2,0,0.3,0.1,0.3,0.3V300.5z"/>
	<path id="XMLID_14_" class="st0" d="M-143.2,300.5c0,0.2-0.1,0.3-0.3,0.3h-0.9c-0.2,0-0.3-0.1-0.3-0.3v-2c0-0.2,0.1-0.3,0.3-0.3
		h0.9c0.2,0,0.3,0.1,0.3,0.3V300.5z"/>
</g>
<g id="XMLID_9_">
	<path id="XMLID_12_" class="st0" d="M-130,297.1c-0.4-0.4-0.8-0.8-1.2-1.2c2.5-2.6,7-2.7,9.6,0c-0.4,0.4-0.8,0.8-1.2,1.2
		c-1-0.9-2.2-1.5-3.6-1.5C-127.8,295.7-129,296.2-130,297.1z"/>
	<path id="XMLID_11_" class="st0" d="M-128.2,298.9c-0.4-0.4-0.8-0.8-1.2-1.2c1.6-1.6,4.4-1.7,6,0c-0.4,0.4-0.8,0.8-1.2,1.2
		C-125.8,298-127,298-128.2,298.9z"/>
	<path id="XMLID_10_" class="st0" d="M-125.2,299.5c-0.4,0.4-0.8,0.8-1.2,1.2c-0.4-0.4-0.8-0.8-1.2-1.2
		C-127.1,298.9-125.9,298.8-125.2,299.5z"/>
</g>
<g id="XMLID_3_">
	<path id="XMLID_6_" class="st1" d="M-106.2,293.8h-10.6c-0.8,0-1.5,0.7-1.5,1.5v4.1c0,0.8,0.7,1.5,1.5,1.5h10.6
		c0.8,0,1.5-0.7,1.5-1.5v-4.1C-104.7,294.5-105.4,293.8-106.2,293.8z M-105.3,299.5c0,0.5-0.4,0.9-0.9,0.9h-10.6
		c-0.5,0-0.9-0.4-0.9-0.9v-4.2c0-0.5,0.4-0.9,0.9-0.9h10.6c0.5,0,0.9,0.4,0.9,0.9V299.5z"/>
	<path id="XMLID_5_" class="st0" d="M-105.9,299.5c0,0.2-0.1,0.3-0.3,0.3h-10.6c-0.2,0-0.3-0.1-0.3-0.3v-4.2c0-0.2,0.1-0.3,0.3-0.3
		h10.6c0.2,0,0.3,0.1,0.3,0.3V299.5z"/>
	<path id="XMLID_4_" class="st0" d="M-103.2,297.4c0,0.5-0.4,0.8-0.8,0.8c0-0.6,0-1.2,0-1.7C-103.6,296.6-103.2,296.9-103.2,297.4z"
		/>
</g>
</svg>
